<?xml version="1.0" encoding="UTF-8"?>
<svg width="100px" height="100px" viewBox="0 0 100 100" version="1.1" xmlns="http://www.w3.org/2000/svg" xmlns:xlink="http://www.w3.org/1999/xlink">
    <!-- Generator: Sketch 62 (91390) - https://sketch.com -->
    <title>Color 1</title>
    <desc>Created with Sketch.</desc>
    <g id="Page-1" stroke="none" stroke-width="1" fill="none" fill-rule="evenodd">
        <g id="201" transform="translate(-443.000000, -370.000000)" fill="#142755">
            <g id="Group-9" transform="translate(443.000000, 370.000000)">
                <g id="Group-6">
                    <path d="M12.819426,-5.17920154e-16 L87.180574,5.17920154e-16 C91.6381677,-3.00926524e-16 93.2545989,0.464128056 94.8842285,1.33566352 C96.5138581,2.20719898 97.792801,3.48614185 98.6643365,5.11577148 C99.5358719,6.74540111 100,8.3618323 100,12.819426 L100,87.180574 C100,91.6381677 99.5358719,93.2545989 98.6643365,94.8842285 C97.792801,96.5138581 96.5138581,97.792801 94.8842285,98.6643365 C93.2545989,99.5358719 91.6381677,100 87.180574,100 L12.819426,100 C8.3618323,100 6.74540111,99.5358719 5.11577148,98.6643365 C3.48614185,97.792801 2.20719898,96.5138581 1.33566352,94.8842285 C0.464128056,93.2545989 2.00617683e-16,91.6381677 -3.45280103e-16,87.180574 L3.45280103e-16,12.819426 C-2.00617683e-16,8.3618323 0.464128056,6.74540111 1.33566352,5.11577148 C2.20719898,3.48614185 3.48614185,2.20719898 5.11577148,1.33566352 C6.74540111,0.464128056 8.3618323,3.00926524e-16 12.819426,-5.17920154e-16 Z" id="Color-1"></path>
                </g>
            </g>
        </g>
    </g>
</svg>